<?xml version="1.0" standalone="no"?>
<!DOCTYPE svg PUBLIC "-//W3C//DTD SVG 1.1//EN" "http://www.w3.org/Graphics/SVG/1.1/DTD/svg11.dtd" >
<svg xmlns="http://www.w3.org/2000/svg">
<metadata>
This is a custom SVG webfont generated by Font Squirrel.
Copyright   : Copyright c 2011 by Just Be Nice studio All rights reserved
</metadata>
<defs>
<font id="WebSymbolsRegular" horiz-adv-x="2048" >
<font-face units-per-em="2048" ascent="1640" descent="-408" />
<missing-glyph horiz-adv-x="512" />
<glyph unicode=" "  horiz-adv-x="512" />
<glyph unicode="&#x09;" horiz-adv-x="512" />
<glyph unicode="&#xa0;" horiz-adv-x="512" />
<glyph unicode="!" />
<glyph unicode="#" horiz-adv-x="1976" d="M0 -408h1976v2048h-1976v-2048zM166 1049l70 73q33 -39 55 -39q37 0 37 64v229h-152v105h279v-332q0 -82 -42 -128t-120 -46q-80 0 -127 74zM178 -229v493h127l236 -303h2v303h127v-493h-127l-236 301h-2v-301h-127zM178 379v493h182q147 0 148 -129q0 -72 -55 -100 q100 -14 100 -127q0 -70 -49 -103.5t-129 -33.5h-197zM305 477h33q86 0 86 53.5t-72 53.5h-47v-107zM305 680h14q70 0 70 47t-67 47h-17v-94zM559 1204v277h129v-258q0 -70 18.5 -103t69.5 -33q35 0 58 23q29 33 28 113v258h129v-277q0 -119 -50 -174t-164.5 -55t-166 55 t-51.5 174zM633 379v493h280v-108h-151v-82h143v-109h-143v-86h151v-108h-280zM795 -229v493h129v-493h-129zM1024 16q0 106 76 183t184 77q51 0 117 -24v-154q-41 53 -113 54q-57 0 -94 -39t-37 -97q0 -59 37 -97t96 -38q68 0 111 53v-153q-72 -23 -113 -23 q-111 0 -187.5 73.5t-76.5 184.5zM1063 1032l53 103q63 -51 115 -52q27 0 44 13.5t17 38.5q0 43 -104 63q-43 6 -75 41t-32 90q0 74 48.5 120t121.5 46q84 0 156 -41l-51 -100q-39 33 -86 32q-23 0 -39.5 -11t-16.5 -29q0 -35 107 -60q43 -10 74.5 -45t31.5 -86 q0 -86 -52 -133t-140 -47q-96 0 -172 57zM1483 1372v109h340v-109h-107v-383h-129v383h-104zM1516 -229v493h280v-108h-154v-84h146v-109h-146v-84h154v-108h-280z" />
<glyph unicode="%" d="M0 -410h956l-329 344l329 330q59 59 59.5 141t-59 141.5t-141.5 59.5t-141 -59l-330 -330l-344 330v-957zM1032 823q0 -82 59.5 -141t141.5 -59t141 59l330 330l344 -330v956h-956l329 -344l-329 -329q-60 -60 -60 -142z" />
<glyph unicode="&#x26;" d="M0 614q0 -279 137 -514t374 -372.5t513 -137.5q279 0 514.5 137.5t372.5 374t137 512.5q0 279 -137 514.5t-374 372.5t-513 137q-279 0 -514.5 -137t-372.5 -374t-137 -513zM492 82v573l237 -209l463 463l-209 238h573v-574l-237 209l-463 -463l209 -237h-573z" />
<glyph unicode="'" d="M0 -94l315 -316l709 709l709 -709l315 316l-709 708l709 709l-315 315l-709 -708l-709 708l-315 -315l709 -709z" />
<glyph unicode="(" d="M0 614q0 -279 137 -514t374 -372.5t513 -137.5q279 0 514.5 137.5t372.5 374t137 512.5q0 279 -137 514.5t-374 372.5t-513 137q-279 0 -514.5 -137t-372.5 -374t-137 -513zM643 614l477 476l146 -146l-330 -330l330 -329l-146 -146z" />
<glyph unicode=")" d="M0 614q0 -279 137 -514t374 -372.5t513 -137.5q279 0 514.5 137.5t372.5 374t137 512.5q0 279 -137 514.5t-374 372.5t-513 137q-279 0 -514.5 -137t-372.5 -374t-137 -513zM782 285l330 329l-330 330l146 146l477 -476l-477 -475z" />
<glyph unicode="*" d="M0 614q0 -279 137 -514t374 -372.5t513 -137.5q279 0 514.5 137.5t372.5 374t137 512.5q0 279 -137 514.5t-374 372.5t-513 137q-279 0 -514.5 -137t-372.5 -374t-137 -513zM365 608.5q0 268.5 190 457.5t459 189q203 0 383 -124.5t241 -311.5h246l-368 -368l-369 368 h246q-6 16 -13 39q-12 51 -37 76q-125 131 -319 131q-186 0 -318.5 -132t-132.5 -318.5t132.5 -318.5t318.5 -132t319 131l127 -145q-188 -188 -456.5 -188.5t-458.5 189t-190 458z" />
<glyph unicode="+" d="M0 614q0 -279 137 -514t374 -372.5t513 -137.5q279 0 514.5 137.5t372.5 374t137 512.5q0 279 -137 514.5t-374 372.5t-513 137q-279 0 -514.5 -137t-372.5 -374t-137 -513zM422 496v241h483v482h242v-482h481v-241h-481v-484h-242v484h-483z" />
<glyph unicode="," d="M0 420l829 -830l1219 1219v553l-276 276h-553zM1386 1174q0 80 57.5 137t139.5 57q80 0 137.5 -57.5t57.5 -136.5q0 -82 -57.5 -139.5t-137.5 -57.5q-82 0 -139.5 57.5t-57.5 139.5z" />
<glyph unicode="-" d="M0 614q0 -279 137 -514t374 -372.5t513 -137.5q279 0 514.5 137.5t372.5 374t137 512.5q0 279 -137 514.5t-374 372.5t-513 137q-279 0 -514.5 -137t-372.5 -374t-137 -513zM422 496v241h1206v-241h-1206z" />
<glyph unicode="." horiz-adv-x="2414" d="M0 614q655 -655 950 -1024q78 123 236 367q715 1081 1229 1536q-37 70 -72 102q-43 37 -53 39q-20 4 -23 4l-43 -28q-33 -20 -158 -121q-80 -66 -268 -227q-387 -334 -993 -940l-586 512z" />
<glyph unicode="/" d="M0 616q0 -279 137 -514t374 -372.5t513 -137.5q279 0 514.5 137.5t372.5 374t137 512.5q0 279 -137 514.5t-374 372.5t-513 137q-279 0 -514.5 -137t-372.5 -374t-137 -513zM422 616l110 109l291 -254q223 223 432 412q190 168 232 198q47 35 65 45q37 0 74 -71 q-168 -150 -397 -457q-150 -201 -287 -418q-8 -12 -23 -38l-22 -36l-45 54q-166 192 -430 456z" />
<glyph unicode="0" d="M0 635h543v242h-543v-242zM215 117l170 -170l383 383l-170 170zM215 1395l383 -383l170 170l-383 383zM903 -268h242v542h-242v-542zM903 1237h242v543h-242v-543zM1280 330l383 -383l170 170l-383 383zM1505 635h543v242h-543v-242z" />
<glyph unicode="1" d="M0 635h543v242h-543v-242zM215 117l170 -170l383 383l-170 170zM215 1395l383 -383l170 170l-383 383zM903 -268h242v542h-242v-542zM903 1237h242v543h-242v-543zM1280 330l383 -383l170 170l-383 383zM1280 1182l170 -170l383 383l-170 170z" />
<glyph unicode="2" d="M0 635h543v242h-543v-242zM215 117l170 -170l383 383l-170 170zM215 1395l383 -383l170 170l-383 383zM903 -268h242v542h-242v-542zM903 1237h242v543h-242v-543zM1280 1182l170 -170l383 383l-170 170zM1505 635h543v242h-543v-242z" />
<glyph unicode="3" d="M0 635h543v242h-543v-242zM215 117l170 -170l383 383l-170 170zM215 1395l383 -383l170 170l-383 383zM903 1237h242v543h-242v-543zM1280 330l383 -383l170 170l-383 383zM1280 1182l170 -170l383 383l-170 170zM1505 635h543v242h-543v-242z" />
<glyph unicode="4" d="M0 635h543v242h-543v-242zM215 1395l383 -383l170 170l-383 383zM903 -268h242v542h-242v-542zM903 1237h242v543h-242v-543zM1280 330l383 -383l170 170l-383 383zM1280 1182l170 -170l383 383l-170 170zM1505 635h543v242h-543v-242z" />
<glyph unicode="5" d="M215 117l170 -170l383 383l-170 170zM215 1395l383 -383l170 170l-383 383zM903 -268h242v542h-242v-542zM903 1237h242v543h-242v-543zM1280 330l383 -383l170 170l-383 383zM1280 1182l170 -170l383 383l-170 170zM1505 635h543v242h-543v-242z" />
<glyph unicode="6" d="M0 635h543v242h-543v-242zM215 117l170 -170l383 383l-170 170zM903 -268h242v542h-242v-542zM903 1237h242v543h-242v-543zM1280 330l383 -383l170 170l-383 383zM1280 1182l170 -170l383 383l-170 170zM1505 635h543v242h-543v-242z" />
<glyph unicode="7" d="M0 635h543v242h-543v-242zM215 117l170 -170l383 383l-170 170zM215 1395l383 -383l170 170l-383 383zM903 -268h242v542h-242v-542zM1280 330l383 -383l170 170l-383 383zM1280 1182l170 -170l383 383l-170 170zM1505 635h543v242h-543v-242z" />
<glyph unicode=":" d="M0 614q0 -279 137 -514t374 -372.5t513 -137.5q279 0 514.5 137.5t372.5 374t137 512.5q0 279 -137 514.5t-374 372.5t-513 137q-279 0 -514.5 -137t-372.5 -374t-137 -513zM549 518l475 477l475 -477l-145 -145l-330 329l-330 -329z" />
<glyph unicode=";" d="M0 614q0 -279 137 -514t374 -372.5t513 -137.5q279 0 514.5 137.5t372.5 374t137 512.5q0 279 -137 514.5t-374 372.5t-513 137q-279 0 -514.5 -137t-372.5 -374t-137 -513zM549 711l145 145l330 -330l330 330l145 -145l-475 -478z" />
<glyph unicode="&#x3c;" horiz-adv-x="1339" d="M0 614l1024 -1024l315 316l-708 708l708 709l-315 315z" />
<glyph unicode="&#x3e;" horiz-adv-x="1339" d="M0 -94l315 -316l1024 1024l-1024 1024l-315 -315l709 -709z" />
<glyph unicode="?" horiz-adv-x="1200" d="M-147 891q0 309 219 526q217 221 526 221t528 -221q217 -217 217 -526t-217 -526q-457 -457 -524 -762q-4 -12 -6 0q-68 305 -524 762q-219 217 -219 526zM256 891q0 -141 100 -242q102 -100 241.5 -100t242.5 100q100 100 100 241.5t-100 242.5q-102 98 -241.5 98 t-242.5 -98q-100 -101 -100 -242z" />
<glyph unicode="@" horiz-adv-x="2785" d="M0 -193q0 -90 63.5 -152.5t151.5 -62.5h2359q88 0 151.5 62.5t63.5 152.5v1608q0 88 -63.5 151.5t-151.5 63.5h-2359q-88 0 -151.5 -63.5t-63.5 -151.5v-1608zM322 -86v1143l1009 -844h125l1012 844v-1143h-2146zM356 1309h2077l-1038 -867z" />
<glyph unicode="A" horiz-adv-x="2279" d="M0 33q0 -190 128 -316.5t318 -126.5q229 0 402 172l772 762q162 164 162 326q0 115 -85 191.5t-206 76.5q-168 0 -303 -135l-694 -688l124 -125l697 688q76 82 176 82q47 0 79 -25.5t32 -66.5q0 -84 -109 -199l-772 -762q-121 -121 -275 -120q-117 0 -192.5 74.5 t-75.5 191.5q0 152 121 272l1010 1002q160 154 368 153q182 0 302 -119.5t120 -302.5q0 -217 -151 -364l-918 -910l127 -124l918 909q205 205 204 489q0 256 -173 428t-429 172q-283 0 -495 -206l-1010 -1002q-172 -172 -172 -397z" />
<glyph unicode="B" d="M0 -153.5q0 -106.5 75 -181.5t181 -75t181 75t75 181q0 104 -74 183q-78 74 -182 73q-106 0 -181 -74.5t-75 -181zM0 549q397 0 677.5 -280.5t280.5 -678.5h394q0 369 -181 678q-182 313 -493 493.5t-678 180.5v-393zM0 1245q332 0 638 -129t531.5 -354t354.5 -532.5 t129 -639.5h395q0 410 -159.5 789t-440.5 659.5t-659.5 440t-788.5 159.5v-393z" />
<glyph unicode="C" horiz-adv-x="2938" d="M0 170q0 -240 170 -410t410 -170q33 0 43 2v-2h1781v2q225 16 380 183.5t155 394.5q0 182 -107.5 333.5t-281.5 211.5q33 96 33 211q0 295 -209 503.5t-504 208.5q-205 0 -380 -111.5t-263 -297.5q-168 143 -381 143q-240 0 -410 -170t-170 -409q0 -57 17 -127 q-131 -78 -207 -211t-76 -285z" />
<glyph unicode="D" horiz-adv-x="2234" d="M0 -408h1675v746h559v1302h-1675v-745h-559v-1303zM186 -221v745h1303v-745h-1303zM745 895v373h1303v-744h-373v371h-930z" />
<glyph unicode="E" horiz-adv-x="681" d="M-711 1337q0 47 70 107q141 121 311 176q115 37 219 37q50 0 97 -8q162 -33 440 -211q190 -125 379 -314q172 -170 313 -379q178 -279 211 -440q9 -47 9 -97q0 -104 -38 -218q-55 -170 -176 -312q-59 -70 -106 -69q-18 0 -39 7t-35 15.5t-35.5 26.5t-32 27.5t-32 32 t-25.5 26.5q-119 115 -198 229q-23 31 -27 59.5t9 56.5t29.5 49.5t45.5 49.5q12 12 54 49t64.5 64t30.5 49q6 18 0 41t-21 51.5t-30.5 50t-38 52t-30.5 43.5q-90 135 -199 239q-113 113 -242 201q-12 8 -41.5 30.5t-52 37t-50.5 30t-51.5 21.5t-39.5 0q-18 -6 -41 -24.5 t-39.5 -36t-43 -47t-38.5 -42.5q-29 -29 -50.5 -45t-49 -29.5t-56 -8t-59.5 25.5q-109 74 -229 199q-4 4 -27 25.5t-32 31.5t-27.5 31.5t-26.5 36t-15.5 35t-7.5 38.5z" />
<glyph unicode="F" horiz-adv-x="2848" d="M0 858q0 -16 2 -20l137 -1071q8 -72 68.5 -124.5t134.5 -52.5h2167q74 0 132 51.5t69 125.5l139 1071v20q0 68 -46 112t-114 44h-2529q-68 0 -114 -44t-46 -112zM160 1194h2529q-20 117 -62 147.5t-208 30.5h-994q-74 0 -90 6t-65 54l-51 147q-156 59 -336 59 q-266 0 -426 -59l-49 -147q-25 -67 -97 -68q-11 0 -24 2h-7q-33 0 -65 -35q-37 -41 -55 -137z" />
<glyph unicode="G" horiz-adv-x="1228" d="M-416 616q0 201 80 396q74 180 219 325q135 141 324 222q199 80 399 79q199 0 400 -79q184 -78 321 -222q143 -133 221 -325q80 -195 80 -396q0 -205 -80 -399q-82 -190 -221 -326q-141 -141 -321 -221q-190 -76 -400 -76q-211 0 -399 76q-182 80 -324 221 q-143 145 -219 326q-80 194 -80 399zM-344 616q0 -16 1 -46.5t1 -43.5q103 8 193 9q64 0 122 -5q-37 96 -36 240q0 166 110 289q-20 56 -20 116q0 81 36 168q4 2 11.5 3.5t33 -2t57.5 -12.5t83 -35.5t108 -65.5q125 35 271 35q143 0 243 -27q88 59 160 85q66 24 96 24h4 l27 -5q33 -82 34 -159q0 -55 -17 -107q127 -123 126 -307q0 -147 -24 -240q53 5 114 5q74 0 160 -7q6 29 6 88q0 393 -277.5 670t-672.5 277q-258 0 -476 -126t-346 -344.5t-128 -476.5zM-336 516q0 -14 4 -67q92 18 326 36q-4 6 -9 20.5t-10 20.5q-38 1 -74 1 q-127 0 -237 -11zM-326 442q45 -262 223.5 -461.5t432.5 -273.5q10 12 16 26.5t6 22.5l2 8v193q-58 -12 -103 -12q-17 0 -33 2q-56 6 -92 28.5t-56.5 47t-28.5 43.5l-8 20q-47 106 -107 135q-28 24 -28 39q0 16 34 21q88 -6 144 -97l2 -4q60 -102 165 -102q55 0 122 28 q12 76 81 132q-338 31 -448 237q-121 0 -324 -33zM-115 152v6l21 61l18 -61q0 -29 -20 -29q-8 0 -13.5 7.5t-5.5 15.5zM-12 229.5q0 -12.5 18.5 -12.5t18.5 12.5t-18.5 12.5t-18.5 -12.5zM23 190q0 -10 14 -10q20 0 20 10q0 16 -20 17q-14 -1 -14 -17zM47 150q0 -12 19 -13 q20 0 20 13q0 16 -20 16q-19 0 -19 -16zM78 109q0 -10 20 -11q18 0 19 11q0 12 -19 12q-20 0 -20 -12zM125 76q0 -10 16.5 -10t16.5 10q0 12 -16.5 12t-16.5 -12zM182 55q0 -16 17 -16q20 0 20 16q0 10 -20 11q-17 -1 -17 -11zM242 55q0 -16 20 -16q16 0 17 16q0 10 -17 11 q-20 -1 -20 -11zM303 66q0 -16 16 -17q23 0 23 17q0 10 -23 10q-16 0 -16 -10zM436 -322q25 0 49 -8q12 37 13 68v348q-34 -26 -34 -88q0 -13 1 -27v-211q0 -47 -29 -82zM596 -334h10q41 0 60 2q-14 33 -21 72v350h-31v-350q0 -37 -18 -74zM760 80v-342q0 -29 10 -60 q8 2 23.5 6.5t21.5 4.5q-20 37 -20 71v211q1 12 1 24q0 59 -36 85zM815 238q90 -61 90 -199v-275q0 -25 13 -47q244 86 412.5 283t209.5 449q-162 27 -285 26q-92 -206 -440 -237zM1260 485q274 -25 286 -26q0 18 4 59q-88 8 -276 8q-2 -10 -8 -24.5t-6 -16.5z" />
<glyph unicode="H" horiz-adv-x="3072" d="M0 614l1024 -1024l315 316l-708 708l708 709l-315 315zM1733 -94l315 -316l1024 1024l-1024 1024l-315 -315l708 -709z" />
<glyph unicode="I" horiz-adv-x="2785" d="M0 -410h2785v2048h-2785v-2048zM246 -164v1557h2294v-1557h-2294zM410 8q0 -8 8 -8h1958q8 4 6 14q-88 109 -213 324q-131 219 -209 317l-2 4h-14l-312 -249l-637 790q-2 3 -5 3h-2q-5 -1 -7 -5q-115 -238 -295 -612q-227 -477 -276 -574v-4zM1966 983q0 -68 48 -116 t116 -48t116 48t48 116q0 66 -47 117q-51 47 -117 47q-68 0 -116 -48t-48 -116z" />
<glyph unicode="J" horiz-adv-x="2785" d="M0 737h494v-737h1302l-240 246h-819v491h492l-615 656zM989 1393l240 -246h819v-492h-492l615 -655l614 655h-493v738h-1303z" />
<glyph unicode="K" d="M0 135q0 -225 159.5 -385t385.5 -160q221 0 385 160l270 264h-487q-16 -43 -65.5 -68.5t-102.5 -25.5q-90 0 -152.5 62.5t-62.5 152.5q0 94 63 152l359 360q63 63 153 64q61 0 115 -35l235 235q-150 129 -350 129q-227 0 -387 -159l-358 -361q-160 -156 -160 -385z M793 317q150 -129 350 -129q227 0 387 160l358 361q160 156 160 385q0 225 -159.5 384.5t-385.5 159.5q-221 0 -385 -159l-270 -265h487q16 43 65.5 69t102.5 26q90 0 152.5 -62.5t62.5 -152.5q0 -94 -63 -152l-359 -360q-63 -63 -153 -64q-61 0 -115 35z" />
<glyph unicode="L" d="M-4 1012q0 260 184 442q182 184 442.5 184t444.5 -184q182 -182 182 -442t-182 -443q-184 -184 -444.5 -184t-442.5 184q-184 183 -184 443zM176 1011.5q0 -184.5 131 -317.5q131 -131 316.5 -131t316.5 131q133 133 133 317.5t-133 317.5q-131 131 -316.5 131 t-316.5 -131q-131 -133 -131 -317.5zM1030 403q59 39 111 93q45 45 90 110l751 -641q62 -62 63 -152q0 -93 -65 -157q-63 -63 -155 -65h-3q-90 0 -153 63z" />
<glyph unicode="M" horiz-adv-x="2785" d="M0 -410h2785v2048h-2785v-2048zM164 82v1065h655v-1065h-655zM164 -82h246v-164h-246v164zM164 1311v164h246v-164h-246zM573 -82h246v-164h-246v164zM573 1311v164h246v-164h-246zM1065 82v1065h655v-1065h-655zM1065 -82h246v-164h-246v164zM1065 1311v164h246v-164 h-246zM1475 -82h245v-164h-245v164zM1475 1311v164h245v-164h-245zM1966 82v1065h655v-1065h-655zM1966 -82h246v-164h-246v164zM1966 1311v164h246v-164h-246zM2376 -82h245v-164h-245v164zM2376 1311v164h245v-164h-245z" />
<glyph unicode="N" horiz-adv-x="2177" d="M-147 1032q0 229 189 419.5t418.5 190.5t424 -191t194.5 -419q0 229 189.5 419.5t417.5 190.5q225 0 421.5 -191t196.5 -419q0 -170 -93 -357.5t-264 -372.5t-386 -363.5t-482 -354.5q-559 365 -892.5 740.5t-333.5 707.5z" />
<glyph unicode="O" horiz-adv-x="2177" d="M-41 991q0 123 47 240q47 111 131 194.5t197 130.5q113 49 239 50q123 0 238 -50q113 -47 197 -131q41 -41 77 -94q41 59 76 94q84 84 197 131q113 49 239 50q123 0 238 -50q113 -47 197 -131t131 -194q49 -113 49 -240q0 -170 -86 -354q-80 -168 -230 -334 q-121 -139 -333 -323q-197 -164 -420 -320q-25 -18 -58 -18q-35 0 -59 18q-240 170 -420 320q-213 184 -334 323q-154 176 -227 334q-86 178 -86 354zM61 991q0 -293 265.5 -596t758.5 -651q492 348 758 651t266 596q0 213 -149.5 362.5t-362.5 149.5t-362.5 -149.5 t-149.5 -362.5q0 213 -149.5 362.5t-362.5 149.5t-362.5 -149.5t-149.5 -362.5z" />
<glyph unicode="P" d="M0 614q0 -279 137 -514t374 -372.5t513 -137.5q279 0 514.5 137.5t372.5 374t137 512.5q0 279 -137 514.5t-374 372.5t-513 137q-279 0 -514.5 -137t-372.5 -374t-137 -513zM240 614q0 256 151 463l4 -4q72 98 170 170l-4 4q207 152 463 152q324 0 554 -230.5t230 -554.5 q0 -256 -151 -462l-4 4q-72 -98 -170 -170l4 -4q-207 -152 -463 -152q-324 0 -554 230t-230 554zM901 492q0 -90 37 -127l246 -246q33 -37 86 -37q51 0 87 36t36 87q0 53 -37 86l-209 211v645q0 51 -36 87t-87 36t-87 -36t-36 -87v-655z" />
<glyph unicode="Q" d="M0 -229q0 -74 53 -127.5t127 -53.5h1688q74 0 127 53.5t53 127.5v1687q0 74 -53 127t-127 53h-1688q-74 0 -127 -53t-53 -127v-1687zM559 442q0 53 36 91t87 38q27 0 57 -14q141 -74 282.5 -74t287.5 74q29 16 57 16q51 0 87 -37.5t36 -91.5q0 -139 -301 -200l239 -248 q37 -37 37 -90t-35.5 -91t-87 -38t-88.5 37l-229 237l-229 -237q-37 -37 -88.5 -37t-87 38t-35.5 91t37 90l239 248q-301 59 -301 198zM604 1016q0 180 122 308t298 128t298 -128t122 -308q0 -176 -121 -307q-119 -129 -299 -129q-176 0 -298 128t-122 308zM850 1016 q0 -74 50 -127t124 -53t124 53t50 127t-49 127q-53 53 -125 53q-74 0 -124 -53t-50 -127z" />
<glyph unicode="R" horiz-adv-x="2150" d="M53 857q-3 -10 -3 -20q0 -37 42 -77l295 -289q53 -53 83 -142q21 -63 21 -120q0 -23 -4 -45l-69 -406q-3 -18 -3 -33q0 -47 28 -68q17 -12 40 -12q28 0 66 19l364 191q66 35 161 34.5t161 -34.5l364 -191q38 -19 67 -19q23 0 40 12q28 20 28 65q0 17 -3 36l-70 406 q-4 22 -4 45q0 56 21 120q30 89 83 142l295 289q42 42 42 79q0 10 -3 19q-14 45 -88 55l-408 60q-74 10 -150.5 65.5t-111.5 122.5l-182 371q-33 68 -80 67.5t-82 -67.5l-182 -371q-35 -68 -110.5 -123t-151.5 -65l-406 -60q-76 -10 -90 -56z" />
<glyph unicode="S" d="M-2 506v221q0 39 39 43l123 12q39 4 49 41l92 221q9 15 9 30q0 19 -15 36l-80 94q-11 15 -11 29q0 16 15 29l158 157q15 15 30 15l27 -13l94 -78q16 -15 37 -14q14 0 29 6l221 92q37 14 41 52l10 123q2 14 14.5 26t28.5 12h224q16 0 28.5 -11t14.5 -27l10 -123 q4 -37 41 -52l223 -92q15 -7 28 -6q20 0 35 14l97 78q13 12 26 12q15 0 31 -14l158 -157q15 -15 15 -30q0 -14 -13 -28l-80 -94q-14 -19 -14 -37q0 -14 8 -29l92 -221q10 -37 51 -41l123 -12q16 -2 27.5 -14.5t11.5 -28.5v-221q0 -16 -11.5 -28.5t-27.5 -14.5l-123 -12 q-41 -4 -51 -41l-92 -222q-8 -14 -8 -28q0 -19 14 -37l80 -94q13 -14 13 -28q0 -15 -15 -30l-158 -157q-16 -14 -31 -14q-14 0 -26 12l-97 77q-16 15 -35 15q-13 0 -28 -6l-223 -93q-14 -4 -26.5 -19t-14.5 -32l-10 -123q-2 -16 -14.5 -27.5t-28.5 -11.5h-224 q-16 0 -28.5 12.5t-14.5 26.5l-10 123q-2 16 -14.5 31.5t-26.5 19.5l-221 93q-16 7 -29 6q-20 0 -37 -15l-94 -77q-14 -13 -27 -13l-30 15l-158 157q-15 13 -15 29q0 13 11 29l80 94q15 17 15 36q0 14 -9 29l-92 222q-10 37 -49 41l-123 12q-39 4 -39 43zM514 616.5 q0 -210.5 148.5 -359t359.5 -148.5t359.5 148.5t148.5 359t-148.5 359t-359.5 148.5t-359.5 -148.5t-148.5 -359z" />
<glyph unicode="T" horiz-adv-x="1894" d="M0 176q0 -195 96 -332q182 -254 594 -254q379 0 627 244q6 -104 37 -188h540q-33 76 -49 182q-6 35 -9 63.5t-5 46t-3 50t-1 46.5v63v75v836q0 147 -47 264q-47 111 -123 179.5t-191 113.5q-193 74 -483 73q-360 0 -600 -135q-272 -152 -297 -518h500q27 164 113.5 230.5 t269.5 66.5q348 0 348 -258q0 -41 -17 -78q-33 -59 -106 -88q-59 -23 -145 -37q-98 -18 -205 -30q-51 -6 -133 -17q-184 -29 -262 -53q-158 -49 -228 -98q-121 -90 -160 -172q-61 -123 -61 -275zM547 199q0 98 53 161q80 90 330 127q276 41 383 101v-217q0 -203 -129 -317.5 t-344 -114.5q-133 0 -213 67.5t-80 192.5z" />
<glyph unicode="U" horiz-adv-x="2191" d="M0 -281q0 -37 2 -65v-64h2185q4 115 4 129q0 55 -4 76q-23 94 -124 168t-234 115q-344 100 -455 229q-35 41 -35 78q0 41 23 150q10 61 55 143q14 25 31 63q39 92 65 271q14 84 15 153q0 219 -111.5 346t-320.5 127t-320.5 -127t-111.5 -346q0 -76 12 -153 q37 -201 67 -271q18 -39 33 -63q43 -86 53 -143q23 -109 23 -150q0 -31 -35 -78q-111 -129 -455 -229q-133 -41 -235 -115t-125 -168q-2 -10 -2 -76z" />
<glyph unicode="V" horiz-adv-x="1755" d="M0 -408l307 308q250 -209 572 -209q348 0 602 239.5t272 587.5h-293q-18 -225 -186 -380.5t-395 -155.5q-201 0 -363 127l313 313h-829v-830zM2 715h293q18 225 187 380.5t397 155.5q203 0 360 -127l-313 -313h829v829l-307 -307q-248 209 -569 209q-350 0 -604.5 -239.5 t-272.5 -587.5z" />
<glyph unicode="W" horiz-adv-x="2279" d="M0 -244q0 -76 55.5 -120t139.5 -44h1890q84 0 139 43t55 121q0 59 -36 123l-947 1649q-63 113 -155 112.5t-160 -112.5l-944 -1647q-37 -66 -37 -125zM997 10.5q0 59.5 42 100.5t100 41q59 0 101 -41t42 -100.5t-41 -100.5q-43 -43 -102 -43q-57 0 -99.5 42t-42.5 101.5z M997 803v299h285v-299q0 -43 -16 -113q-10 -37 -13 -53l-55 -332h-121l-53 332q-2 8 -5 28.5t-5 26.5q-17 66 -17 111z" />
<glyph unicode="X" horiz-adv-x="2433" d="M0 618q0 -438 303 -733t750 -295q371 0 692 299l-217 220q-229 -211 -500 -211q-291 0 -507 206.5t-216 493.5q0 307 210 520t515 213q262 0 498 -213l215 217q-336 303 -715 303q-274 0 -512 -135q-238 -137 -377 -374t-139 -511zM1022 434h846v-362l565 540l-565 545 v-362h-846v-361z" />
<glyph unicode="Z" horiz-adv-x="2492" d="M0 1282q0 -37 26.5 -62.5t61.5 -25.5h2316q37 0 62.5 25.5t25.5 62.5v268q0 35 -25.5 61.5t-62.5 26.5h-2316q-35 0 -61.5 -26.5t-26.5 -61.5v-268zM88 -322q0 -35 26.5 -61.5t63.5 -26.5h2136q37 0 63.5 27t26.5 61v1248q0 37 -26.5 63.5t-63.5 26.5h-2136 q-37 0 -63.5 -26.5t-26.5 -63.5v-1248zM713 614.5q0 55.5 39 94.5t94 39h801q55 0 95 -39t40 -94.5t-39 -94.5t-96 -39h-801q-55 0 -94 39t-39 94.5z" />
<glyph unicode="[" horiz-adv-x="1083" d="M0 1157l543 -1085l540 1085h-1083z" />
<glyph unicode="\" d="M0 614q0 -279 137 -514t374 -372.5t513 -137.5q279 0 514.5 137.5t372.5 374t137 512.5q0 279 -137 514.5t-374 372.5t-513 137q-279 0 -514.5 -137t-372.5 -374t-137 -513zM240 614q0 256 151 463l1096 -1095q-207 -152 -463 -152q-324 0 -554 230t-230 554zM561 1247 q207 152 463 152q324 0 554 -230.5t230 -554.5q0 -256 -151 -462z" />
<glyph unicode="]" horiz-adv-x="1083" d="M0 72l1083 542l-1083 543v-1085z" />
<glyph unicode="_" horiz-adv-x="2785" d="M0 -410h2785v2048h-2785v-2048zM328 567v203l428 170l-428 172v203l649 -275v-196zM1069 410v157h651v-157h-651z" />
<glyph unicode="`" d="M0 614q0 -279 137 -514t374 -372.5t513 -137.5q279 0 514.5 137.5t372.5 374t137 512.5q0 279 -137 514.5t-374 372.5t-513 137q-279 0 -514.5 -137t-372.5 -374t-137 -513zM311 494h291v241h-291q39 225 203 389t389 203v-291h242v291q225 -39 389 -202.5t203 -389.5 h-291v-241h291q-39 -225 -203 -389t-389 -203v291h-242v-291q-225 39 -389 203t-203 389z" />
<glyph unicode="a" horiz-adv-x="1556" d="M0 -410h1556v1639l-409 409h-1147v-2048zM328 -82v1393h655v-246h246v-1147h-901z" />
<glyph unicode="b" horiz-adv-x="2025" d="M0 -102h2021v1132l-405 404h-1616v-1536zM324 221v889h1132v-242h242v-647h-1374z" />
<glyph unicode="c" horiz-adv-x="2328" d="M0 344q0 -84 60.5 -144.5t144.5 -60.5h1028l547 -549v549h344q84 0 144.5 60.5t60.5 144.5v1090q0 84 -60.5 144t-144.5 60h-1919q-84 0 -144.5 -60t-60.5 -144v-1090z" />
<glyph unicode="d" horiz-adv-x="2414" d="M0 -410l731 220l-4 6q231 -80 479 -80q324 0 606 127q279 129 441 349t162 476q0 260 -162 477q-162 219 -441.5 346t-605 127t-604.5 -127q-279 -129 -440.5 -348t-161.5 -475q0 -301 217 -545l-8 -77q-12 -90 -68.5 -226.5t-140.5 -249.5z" />
<glyph unicode="e" horiz-adv-x="2414" d="M0 -410l731 220l-4 6q231 -80 479 -80q324 0 606 127q279 129 441 349t162 476q0 260 -162 477q-162 219 -441.5 346t-605 127t-604.5 -127q-279 -129 -440.5 -348t-161.5 -475q0 -301 217 -545l-8 -77q-12 -90 -68.5 -226.5t-140.5 -249.5zM586 688q0 59 43 102.5 t102 43.5q61 0 104.5 -43t43.5 -103q0 -61 -43 -104t-105 -43q-59 0 -102 43t-43 104zM1098 688q0 59 43 102.5t102 43.5q61 0 104.5 -43t43.5 -103q0 -61 -43 -104t-105 -43q-59 0 -102 43t-43 104zM1610 688q0 59 43 102.5t102 43.5q61 0 104.5 -43t43.5 -103 q0 -61 -43 -104t-105 -43q-59 0 -102 43t-43 104z" />
<glyph unicode="f" d="M0 -229q0 -74 53 -127.5t127 -53.5h1688q74 0 127 53.5t53 127.5v1687q0 74 -53 127t-127 53h-1688q-74 0 -127 -53t-53 -127v-1687zM946 645v236h162v159q0 362 305 363q205 0 293 -31l-41 -242q-63 20 -131 21q-121 0 -121 -86v-184h260l-18 -236h-242v-819h-305v819 h-162z" />
<glyph unicode="g" d="M0 -229q0 -74 53 -127.5t127 -53.5h1688q74 0 127 53.5t53 127.5v1687q0 74 -53 127t-127 53h-1688q-74 0 -127 -53t-53 -127v-1687zM238 199q0 113 77 186q131 123 385 123q-10 25 -16 31q-4 4 -16 10q-6 0 -11 22q-4 29 -4 72h-12h-6q-139 0 -227 86q-90 88 -91 232 q0 119 70 207.5t191 127.5q37 12 120 23q100 8 273 8q68 -2 106 -2q45 0 45 -22q0 -20 -8 -31q-10 -16 -67 -31q-41 -10 -74 -10q90 -66 90 -219q0 -82 -28.5 -147.5t-69.5 -98.5q-100 -80 -101 -113q0 -29 129 -137q53 -45 91 -116.5t38 -145.5q0 -172 -133 -269.5 t-332 -97.5q-178 0 -298.5 81t-120.5 231zM432 236q0 -86 76 -137.5t178 -51.5t187 57.5t85 143.5q0 84 -76.5 134t-176.5 50q-113 0 -193 -52t-80 -144zM522 1061q0 -102 55.5 -191.5t137.5 -89.5q66 0 98.5 49.5t32.5 124.5q0 102 -55.5 191.5t-137.5 89.5 q-66 0 -98.5 -49t-32.5 -125zM1190 969v123h250v249h123v-249h247v-123h-247v-248h-123v248h-250z" />
<glyph unicode="h" horiz-adv-x="2426" d="M0 614l1026 -1022v648q116 10 228 9q167 0 324 -22q261 -37 417 -108q129 -59 244.5 -148.5t148.5 -136.5q23 -31 39 -61l-2 34q0 68 -49 238q-45 158 -189 356q-137 190 -418 355q-293 170 -743 231v653z" />
<glyph unicode="i" horiz-adv-x="3174" d="M0 614l1026 -1022v371l-653 651l653 654v372zM748 614l1026 -1022v648q116 10 227 9q167 0 325 -22q261 -37 416 -108q129 -59 245 -148.5t148 -136.5q23 -31 39 -61v34q-4 72 -51 238q-45 158 -188 356q-137 190 -418 355q-293 170 -743 231v653z" />
<glyph unicode="j" horiz-adv-x="2426" d="M0 240h1401v-648l1026 1022l-1026 1026v-653h-1401v-747z" />
<glyph unicode="k" d="M0 -229q0 -74 53 -127.5t127 -53.5h1688q74 0 127 53.5t53 127.5v1687q0 74 -53 127t-127 53h-1688q-74 0 -127 -53t-53 -127v-1687zM559 713v245h31q115 0 155 31q18 12 46 64q4 6 7 13t6 12t5 7q70 100 76 242h229l-4 -371h379v-243h-375v-559q0 -27 46 -52.5 t100 -25.5q102 0 215 71v-262q-55 -31 -142 -39q-57 -8 -166 -8h-92q-129 0 -215 39q-115 47 -115 209v621z" />
<glyph unicode="l" d="M0 -229q0 -74 53 -127.5t127 -53.5h1688q74 0 127 53.5t53 127.5v1687q0 74 -53 127t-127 53h-1688q-74 0 -127 -53t-53 -127v-1687zM403 1095.5q0 57.5 39 95.5t100.5 38t99.5 -38t38 -101q0 -54 -37 -90q-39 -38 -104 -37q-59 0 -97.5 37.5t-38.5 95zM410 0v858h262 v-858h-262zM823 858h228l12 -121h4q35 59 103.5 99.5t158.5 40.5q139 0 221 -96.5t82 -274.5v-506h-264v475q0 186 -133 187q-96 0 -135 -101q-8 -23 -8 -67v-494h-263v584q0 41 -6 274z" />
<glyph unicode="m" d="M0 -229q0 -74 53 -127.5t127 -53.5h1688q74 0 127 53.5t53 127.5v1687q0 74 -53 127t-127 53h-1688q-74 0 -127 -53t-53 -127v-1687zM164 920v10q33 25 139 121q131 115 217 166t160 51q86 0 139 -100.5t68 -245.5q35 -383 119 -469q33 -39 73 -39q70 0 151 151.5 t81 247.5t-62 119q-44 16 -93 16q-25 0 -50 -4q49 152 183 259.5t284 107.5q229 0 229 -191q0 -33 -6 -69q-23 -117 -114 -305.5t-214 -374.5q-131 -195 -290.5 -324t-290.5 -129q-27 0 -58 10q-39 14 -94 80q-23 27 -63 125q-25 49 -45 137q-20 66 -31 119q-39 156 -76 266 q-2 6 -20 68q-35 111 -64 137q-23 20 -51 21q-27 0 -70 -14.5t-67 -14.5q-41 0 -62 39q-12 19 -22 29z" />
<glyph unicode="n" d="M182 279l307 217l-307 219v-436zM678 29v-437h1370v437h-1370zM678 279h1370v436h-1370v-436zM678 963h1370v436h-1370v-436z" />
<glyph unicode="o" d="M182 496l307 -217v436zM678 29v-437h1370v437h-1370zM678 279h1370v436h-1370v-436zM678 963h1370v436h-1370v-436z" />
<glyph unicode="p" d="M178 -190q0 -63 46 -109.5t109.5 -46.5t109.5 46t46 110q0 66 -46 111.5t-109.5 45.5t-109.5 -45.5t-46 -111.5zM178 495.5q0 -65.5 46 -110.5t109.5 -45t109.5 45t46 110.5t-45 110.5t-110 45q-63 0 -109.5 -45t-46.5 -110.5zM178 1181.5q0 -63.5 46 -109.5t109.5 -46 t109.5 46t46 110q0 66 -45 110.5t-110 44.5q-63 0 -109.5 -46t-46.5 -109.5zM678 29v-437h1370v437h-1370zM678 279h1370v436h-1370v-436zM678 963h1370v436h-1370v-436z" />
<glyph unicode="q" d="M186 -248v-6q0 -63 40 -99t106 -36q61 0 103 35t42 92q0 76 -69 90q25 6 40 28.5t15 49.5q0 49 -38 77.5t-93 28.5q-61 0 -97 -34.5t-38 -96.5h75q0 68 60 68q55 0 55 -49.5t-76 -49.5h-6v-55h19q31 2 51 -13t20 -44q0 -61 -65.5 -61.5t-65.5 75.5h-78zM186 291h289v67 h-186q23 33 69 62q115 70 115 145q0 55 -38 88t-95 33q-68 0 -105.5 -42t-37.5 -112h75q4 84 64 84q27 0 42 -15t15 -40q0 -57 -100 -108q-43 -23 -74 -66t-33 -96zM221 1219h94v-256h86v393h-65q-16 -78 -115 -78v-59zM678 29v-437h1370v437h-1370zM678 279h1370v436h-1370 v-436zM678 963h1370v436h-1370v-436z" />
<glyph unicode="r" d="M0 -229q0 -74 53 -127.5t127 -53.5h1688q74 0 127 53.5t53 127.5v1687q0 74 -53 127t-127 53h-1688q-74 0 -127 -53t-53 -127v-1687zM301 72q0 76 53.5 129t126.5 53q76 0 129.5 -53.5t53.5 -128.5q0 -74 -53.5 -127.5t-129.5 -53.5q-74 0 -127 53.5t-53 127.5zM301 569 v277q256 0 479 -127q221 -129 348 -350.5t127 -477.5h-278q0 283 -198.5 480.5t-477.5 197.5zM301 1061v276q289 0 558 -112.5t466 -309t309.5 -466t112.5 -558.5h-279q0 319 -155 588q-158 270 -428.5 426t-583.5 156z" />
<glyph unicode="s" d="M0 1079q0 -150 78 -282q-20 -102 -21 -193q0 -399 288 -681.5t689 -282.5q78 0 180 16q127 -66 267 -66q233 0 400 164t167 396q0 125 -59 247q23 96 22 207q0 266 -131 486q-133 221 -357.5 349t-488.5 128q-94 0 -166 -15q-135 86 -301 86q-233 0 -400 -164t-167 -395z M459 330q0 53 43 90t100 37q90 0 139 -105q25 -53 47 -88q59 -104 236 -104q109 0 189.5 45t80.5 125q0 129 -284 188q-98 20 -238 60q-129 37 -208 120.5t-79 212.5q0 100 50.5 177t136.5 118q160 76 356 76q162 0 294 -54t191 -161q31 -55 31 -110.5t-42 -94.5t-99 -39 q-88 0 -133 88q-4 6 -19.5 32t-25.5 40q-59 86 -215 86q-90 0 -160 -35t-70 -98q0 -47 45 -80q66 -47 279 -88q209 -43 338 -117q162 -92 162 -293q0 -109 -51.5 -192.5t-139.5 -130.5q-172 -92 -381 -92q-362 0 -510 213q-63 88 -63 174z" />
<glyph unicode="t" horiz-adv-x="2054" d="M0 250q145 -201 359 -309.5t462 -108.5q344 0 629 191.5t358 496.5h13q149 0 233 94q-31 -6 -63 -6q-98 0 -170 31q76 4 138 40t87 95q-66 -39 -170 -39q-37 0 -74 13q-33 176 -160 294q-112 104 -248 105q-19 0 -38 -2q2 2 57 18q57 16 88 31q33 14 33 33q0 23 -31 22 q-45 0 -119 -30l-53 -21q102 37 109 84q-90 -12 -160 -78q29 31 31 64q-102 -68 -175 -190t-147 -320q-96 96 -155 129q-213 119 -527 237l-2 -16q-2 -150 176 -248h-16q-49 0 -109 -16q27 -160 230 -209q-96 -6 -142 -57q37 -72 105 -105q51 -25 111 -25q19 0 38 3 q-84 -37 -84 -93q0 -45 48 -69q35 -18 74 -19q13 0 26 2q-160 -170 -391 -170q-217 1 -371 148z" />
<glyph unicode="u" horiz-adv-x="1972" d="M0 274v-682h455v682h-455zM758 -408h456v1366h-456v-1366zM1518 -408h454v2048h-454v-2048z" />
<glyph unicode="v" d="M0 -229q0 -74 53 -127.5t127 -53.5h1688q74 0 127 53.5t53 127.5v1687q0 74 -53 127t-127 53h-1688q-74 0 -127 -53t-53 -127v-1687zM573 0v1229h449q178 0 299 -43q154 -55 154 -242q0 -88 -45.5 -159.5t-124.5 -104.5v-6q121 -25 186 -101.5t65 -195.5 q0 -207 -155 -297q-139 -80 -336 -80h-492zM881 225h45h37h43q55 0 84 6q4 0 16 3l20 6q25 2 37 12q45 29 56 49q20 41 20 82q0 57 -29 98q-6 8 -20 16.5t-33.5 17.5t-21.5 9q-23 8 -97 8h-53h-104v-307zM881 743h61q49 0 64 2q76 0 110 27q45 37 45 109q0 35 -12 59 q-25 45 -80 55q-43 8 -108 9h-80v-261z" />
<glyph unicode="w" horiz-adv-x="1191" d="M0 66q0 -66 66 -66h1060q66 0 66 66v729q0 20 -6 34q-12 27 -37 31t-57 4q-14 -2 -31 -2l-4 352h-2q-16 182 -146.5 310.5t-308.5 128.5q-182 0 -314 -110.5t-151 -287.5h-2v-262h199v256q0 100 76.5 154.5t191.5 54.5q117 0 189.5 -49t72.5 -149v-398h-796 q-66 0 -66 -67v-729z" />
<glyph unicode="x" horiz-adv-x="1191" d="M0 66q0 -66 66 -66h1060q66 0 66 66v729q0 20 -6 34q-12 27 -37 31t-57 4q-14 -2 -31 -2l-4 219h-2q-16 184 -146.5 311.5t-308.5 127.5q-182 0 -314 -111t-151 -287h-2v-260q-14 0 -29 2h-32q-41 -6 -52 -14q-20 -20 -20 -55v-729zM332 862v254q0 100 76.5 154.5 t191.5 54.5q117 0 189.5 -49t72.5 -150v-264h-530z" />
<glyph unicode="y" d="M152 127q0 -100 12 -297q8 -100 77.5 -161.5t174.5 -65.5q221 -10 608 -11q383 0 608 11q102 4 174 65q43 37 64.5 134.5t23.5 155.5t2 169q0 100 -12 297q-8 100 -77.5 161.5t-174.5 65.5q-221 10 -608 10.5t-608 -10.5q-98 -2 -172 -63q-43 -37 -65.5 -133.5 t-24.5 -159t-2 -168.5zM287 393v103h366v-103h-125v-600h-118v600h-123zM301 1640l117 -350q57 -156 59 -174v-344h148v361q8 37 37 114q4 12 11 31.5t9 24.5l113 337h-150l-90 -346h-10l-94 346h-150zM651 -125v436h107v-397q0 -35 26 -35q31 0 64 39v393h104v-518h-104v57 q-61 -66 -123 -65q-74 0 -74 90zM788 934q0 -82 52.5 -130t136.5 -48q88 0 139 46t51 130v332q0 74 -52 120t-132 46q-84 0 -139.5 -43.5t-55.5 -120.5v-332zM924 922v350q0 18 16 32.5t36.5 14.5t39 -14.5t18.5 -32.5v-350q0 -53 -57 -54q-53 1 -53 54zM1057 -207v703h106 v-226q43 47 94 47q102 0 103 -129v-286q0 -115 -96 -115q-53 0 -101 47v-41h-106zM1163 -109q23 -23 51 -22q37 0 37 43v272q0 51 -43 52q-25 0 -45 -21v-324zM1278 879q0 -115 92 -115q76 0 152 80v-72h131v641h-131v-485q-43 -49 -78 -49t-35 43v491h-131v-534zM1440 -59 v231q0 68 46 111t116 43q72 0 110.5 -41t38.5 -113v-131h-201v-98q0 -27 2 -35q0 -14 12.5 -25.5t30.5 -11.5q35 0 43 27q6 18 7 55q-2 14 -3 27h109v-39q0 -162 -158 -162q-74 0 -113.5 44t-39.5 118zM1550 121h92v57q0 55 -45 55q-47 0 -47 -55v-57z" />
<glyph unicode="z" d="M-12 829v86q0 27 16 56.5t37 44.5l928 618q23 16 53.5 16.5t52.5 -16.5l928 -618q20 -14 36.5 -44t16.5 -57v-86q0 -27 -18.5 -45t-44.5 -18h-43q-27 0 -46.5 -19.5t-19.5 -46.5v-1034q0 -27 -18.5 -46t-44.5 -19h-570v690h-458v-690h-568q-29 0 -47 19.5t-18 45.5v1034 q0 27 -18.5 46.5t-45.5 19.5h-43q-27 0 -46 18t-19 45z" />
<glyph unicode="{" horiz-adv-x="964" d="M0 856l481 -483l484 483h-965z" />
<glyph unicode="}" horiz-adv-x="964" d="M0 373h965l-484 483z" />
<glyph unicode="~" d="M0 616q0 -279 137 -514t374 -372.5t513 -137.5q279 0 514.5 137.5t372.5 374t137 512.5q0 279 -137 514.5t-374 372.5t-513 137q-279 0 -514.5 -137t-372.5 -374t-137 -513zM391 737l332 543l332 -543h-211v-602h-242v602h-211zM993 498h211v600h242v-600h211l-332 -484z " />
<glyph unicode="&#xaa;" horiz-adv-x="1556" d="M0 -410h1556v1639l-409 409h-1147v-2048zM328 -82v1393h655v-246h246v-1147h-901z" />
<glyph unicode="&#xad;" d="M0 614q0 -279 137 -514t374 -372.5t513 -137.5q279 0 514.5 137.5t372.5 374t137 512.5q0 279 -137 514.5t-374 372.5t-513 137q-279 0 -514.5 -137t-372.5 -374t-137 -513zM422 496v241h1206v-241h-1206z" />
<glyph unicode="&#xb2;" d="M0 -80v-328h2048v328h-2048zM0 166h2048v328h-2048v-328zM0 739h2048v328h-2048v-328zM0 1313h2048v327h-2048v-327z" />
<glyph unicode="&#xb3;" d="M0 -408h901v902h-901v-902zM0 739h901v901h-901v-901zM246 -162v410h409v-410h-409zM246 985v410h409v-410h-409zM1147 -80v-328h901v328h-901zM1147 166h901v328h-901v-328zM1147 739h901v328h-901v-328zM1147 1313h901v327h-901v-327z" />
<glyph unicode="&#xb9;" d="M0 -408h901v902h-901v-902zM0 739h901v901h-901v-901zM246 -162v410h409v-410h-409zM246 985v410h409v-410h-409zM1147 -408h901v902h-901v-902zM1147 739h901v901h-901v-901zM1393 -162v410h409v-410h-409zM1393 985v410h409v-410h-409z" />
<glyph unicode="&#xba;" d="M182 496l307 -217v436zM678 29v-437h1370v437h-1370zM678 279h1370v436h-1370v-436zM678 963h1370v436h-1370v-436z" />
<glyph unicode="&#xc0;" horiz-adv-x="2279" d="M653 2785q0 -279 137 -514t374 -372.5t513 -137.5q279 0 514.5 137.5t372.5 374t137 512.5q0 279 -137 514.5t-374 372.5t-513 137q-279 0 -514.5 -137t-372.5 -374t-137 -513zM964 2665h291v241h-291q39 225 203 389t389 203v-291h242v291q225 -39 389 -202.5 t203 -389.5h-291v-241h291q-39 -225 -203 -389t-389 -203v291h-242v-291q-225 39 -389 203t-203 389zM0 33q0 -190 128 -316.5t318 -126.5q229 0 402 172l772 762q162 164 162 326q0 115 -85 191.5t-206 76.5q-168 0 -303 -135l-694 -688l124 -125l697 688q76 82 176 82 q47 0 79 -25.5t32 -66.5q0 -84 -109 -199l-772 -762q-121 -121 -275 -120q-117 0 -192.5 74.5t-75.5 191.5q0 152 121 272l1010 1002q160 154 368 153q182 0 302 -119.5t120 -302.5q0 -217 -151 -364l-918 -910l127 -124l918 909q205 205 204 489q0 256 -173 428t-429 172 q-283 0 -495 -206l-1010 -1002q-172 -172 -172 -397z" />
<glyph unicode="&#xc3;" horiz-adv-x="2279" d="M653 2785q0 -279 137 -514t374 -372.5t513 -137.5q279 0 514.5 137.5t372.5 374t137 512.5q0 279 -137 514.5t-374 372.5t-513 137q-279 0 -514.5 -137t-372.5 -374t-137 -513zM1044 2906l332 543l332 -543h-211v-602h-242v602h-211zM1646 2667h211v600h242v-600h211 l-332 -484zM0 33q0 -190 128 -316.5t318 -126.5q229 0 402 172l772 762q162 164 162 326q0 115 -85 191.5t-206 76.5q-168 0 -303 -135l-694 -688l124 -125l697 688q76 82 176 82q47 0 79 -25.5t32 -66.5q0 -84 -109 -199l-772 -762q-121 -121 -275 -120q-117 0 -192.5 74.5 t-75.5 191.5q0 152 121 272l1010 1002q160 154 368 153q182 0 302 -119.5t120 -302.5q0 -217 -151 -364l-918 -910l127 -124l918 909q205 205 204 489q0 256 -173 428t-429 172q-283 0 -495 -206l-1010 -1002q-172 -172 -172 -397z" />
<glyph unicode="&#xc8;" horiz-adv-x="681" d="M-1135 2803q0 -279 137 -514t374 -372.5t513 -137.5q279 0 514.5 137.5t372.5 374t137 512.5q0 279 -137 514.5t-374 372.5t-513 137q-279 0 -514.5 -137t-372.5 -374t-137 -513zM-824 2683h291v241h-291q39 225 203 389t389 203v-291h242v291q225 -39 389 -202.5 t203 -389.5h-291v-241h291q-39 -225 -203 -389t-389 -203v291h-242v-291q-225 39 -389 203t-203 389zM-711 1337q0 47 70 107q141 121 311 176q115 37 219 37q50 0 97 -8q162 -33 440 -211q190 -125 379 -314q172 -170 313 -379q178 -279 211 -440q9 -47 9 -97 q0 -104 -38 -218q-55 -170 -176 -312q-59 -70 -106 -69q-18 0 -39 7t-35 15.5t-35.5 26.5t-32 27.5t-32 32t-25.5 26.5q-119 115 -198 229q-23 31 -27 59.5t9 56.5t29.5 49.5t45.5 49.5q12 12 54 49t64.5 64t30.5 49q6 18 0 41t-21 51.5t-30.5 50t-38 52t-30.5 43.5 q-90 135 -199 239q-113 113 -242 201q-12 8 -41.5 30.5t-52 37t-50.5 30t-51.5 21.5t-39.5 0q-18 -6 -41 -24.5t-39.5 -36t-43 -47t-38.5 -42.5q-29 -29 -50.5 -45t-49 -29.5t-56 -8t-59.5 25.5q-109 74 -229 199q-4 4 -27 25.5t-32 31.5t-27.5 31.5t-26.5 36t-15.5 35 t-7.5 38.5z" />
<glyph unicode="&#xcc;" horiz-adv-x="2785" d="M369 2785q0 -279 137 -514t374 -372.5t513 -137.5q279 0 514.5 137.5t372.5 374t137 512.5q0 279 -137 514.5t-374 372.5t-513 137q-279 0 -514.5 -137t-372.5 -374t-137 -513zM680 2665h291v241h-291q39 225 203 389t389 203v-291h242v291q225 -39 389 -202.5 t203 -389.5h-291v-241h291q-39 -225 -203 -389t-389 -203v291h-242v-291q-225 39 -389 203t-203 389zM0 -410h2785v2048h-2785v-2048zM246 -164v1557h2294v-1557h-2294zM410 8q0 -8 8 -8h1958q8 4 6 14q-88 109 -213 324q-131 219 -209 317l-2 4h-14l-312 -249l-637 790 q-2 3 -5 3h-2q-5 -1 -7 -5q-115 -238 -295 -612q-227 -477 -276 -574v-4zM1966 983q0 -68 48 -116t116 -48t116 48t48 116q0 66 -47 117q-51 47 -117 47q-68 0 -116 -48t-48 -116z" />
<glyph unicode="&#xd1;" horiz-adv-x="2177" d="M49 2789q0 -279 137 -514t374 -372.5t513 -137.5q279 0 514.5 137.5t372.5 374t137 512.5q0 279 -137 514.5t-374 372.5t-513 137q-279 0 -514.5 -137t-372.5 -374t-137 -513zM440 2910l332 543l332 -543h-211v-602h-242v602h-211zM1042 2671h211v600h242v-600h211 l-332 -484zM-147 1032q0 229 189 419.5t418.5 190.5t424 -191t194.5 -419q0 229 189.5 419.5t417.5 190.5q225 0 421.5 -191t196.5 -419q0 -170 -93 -357.5t-264 -372.5t-386 -363.5t-482 -354.5q-559 365 -892.5 740.5t-333.5 707.5z" />
<glyph unicode="&#xd2;" horiz-adv-x="2177" d="M61 2752q0 -279 137 -514t374 -372.5t513 -137.5q279 0 514.5 137.5t372.5 374t137 512.5q0 279 -137 514.5t-374 372.5t-513 137q-279 0 -514.5 -137t-372.5 -374t-137 -513zM372 2632h291v241h-291q39 225 203 389t389 203v-291h242v291q225 -39 389 -202.5t203 -389.5 h-291v-241h291q-39 -225 -203 -389t-389 -203v291h-242v-291q-225 39 -389 203t-203 389zM-41 991q0 123 47 240q47 111 131 194.5t197 130.5q113 49 239 50q123 0 238 -50q113 -47 197 -131q41 -41 77 -94q41 59 76 94q84 84 197 131q113 49 239 50q123 0 238 -50 q113 -47 197 -131t131 -194q49 -113 49 -240q0 -170 -86 -354q-80 -168 -230 -334q-121 -139 -333 -323q-197 -164 -420 -320q-25 -18 -58 -18q-35 0 -59 18q-240 170 -420 320q-213 184 -334 323q-154 176 -227 334q-86 178 -86 354zM61 991q0 -293 265.5 -596t758.5 -651 q492 348 758 651t266 596q0 213 -149.5 362.5t-362.5 149.5t-362.5 -149.5t-149.5 -362.5q0 213 -149.5 362.5t-362.5 149.5t-362.5 -149.5t-149.5 -362.5z" />
<glyph unicode="&#xd5;" horiz-adv-x="2177" d="M61 2752q0 -279 137 -514t374 -372.5t513 -137.5q279 0 514.5 137.5t372.5 374t137 512.5q0 279 -137 514.5t-374 372.5t-513 137q-279 0 -514.5 -137t-372.5 -374t-137 -513zM452 2873l332 543l332 -543h-211v-602h-242v602h-211zM1054 2634h211v600h242v-600h211 l-332 -484zM-41 991q0 123 47 240q47 111 131 194.5t197 130.5q113 49 239 50q123 0 238 -50q113 -47 197 -131q41 -41 77 -94q41 59 76 94q84 84 197 131q113 49 239 50q123 0 238 -50q113 -47 197 -131t131 -194q49 -113 49 -240q0 -170 -86 -354q-80 -168 -230 -334 q-121 -139 -333 -323q-197 -164 -420 -320q-25 -18 -58 -18q-35 0 -59 18q-240 170 -420 320q-213 184 -334 323q-154 176 -227 334q-86 178 -86 354zM61 991q0 -293 265.5 -596t758.5 -651q492 348 758 651t266 596q0 213 -149.5 362.5t-362.5 149.5t-362.5 -149.5 t-149.5 -362.5q0 213 -149.5 362.5t-362.5 149.5t-362.5 -149.5t-149.5 -362.5z" />
<glyph unicode="&#xd7;" d="M0 614q0 -279 137 -514t374 -372.5t513 -137.5q279 0 514.5 137.5t372.5 374t137 512.5q0 279 -137 514.5t-374 372.5t-513 137q-279 0 -514.5 -137t-372.5 -374t-137 -513zM549 285l330 329l-330 330l145 146l330 -330l330 330l145 -146l-330 -330l330 -329l-145 -146 l-330 330l-330 -330z" />
<glyph unicode="&#xd9;" horiz-adv-x="2191" d="M72 2785q0 -279 137 -514t374 -372.5t513 -137.5q279 0 514.5 137.5t372.5 374t137 512.5q0 279 -137 514.5t-374 372.5t-513 137q-279 0 -514.5 -137t-372.5 -374t-137 -513zM383 2665h291v241h-291q39 225 203 389t389 203v-291h242v291q225 -39 389 -202.5t203 -389.5 h-291v-241h291q-39 -225 -203 -389t-389 -203v291h-242v-291q-225 39 -389 203t-203 389zM0 -281q0 -37 2 -65v-64h2185q4 115 4 129q0 55 -4 76q-23 94 -124 168t-234 115q-344 100 -455 229q-35 41 -35 78q0 41 23 150q10 61 55 143q14 25 31 63q39 92 65 271 q14 84 15 153q0 219 -111.5 346t-320.5 127t-320.5 -127t-111.5 -346q0 -76 12 -153q37 -201 67 -271q18 -39 33 -63q43 -86 53 -143q23 -109 23 -150q0 -31 -35 -78q-111 -129 -455 -229q-133 -41 -235 -115t-125 -168q-2 -10 -2 -76z" />
<glyph unicode="&#xe0;" horiz-adv-x="1556" d="M-451 2785q0 -279 137 -514t374 -372.5t513 -137.5q279 0 514.5 137.5t372.5 374t137 512.5q0 279 -137 514.5t-374 372.5t-513 137q-279 0 -514.5 -137t-372.5 -374t-137 -513zM-140 2665h291v241h-291q39 225 203 389t389 203v-291h242v291q225 -39 389 -202.5 t203 -389.5h-291v-241h291q-39 -225 -203 -389t-389 -203v291h-242v-291q-225 39 -389 203t-203 389zM0 -410h1556v1639l-409 409h-1147v-2048zM328 -82v1393h655v-246h246v-1147h-901z" />
<glyph unicode="&#xe3;" horiz-adv-x="1556" d="M-451 2785q0 -279 137 -514t374 -372.5t513 -137.5q279 0 514.5 137.5t372.5 374t137 512.5q0 279 -137 514.5t-374 372.5t-513 137q-279 0 -514.5 -137t-372.5 -374t-137 -513zM-60 2906l332 543l332 -543h-211v-602h-242v602h-211zM542 2667h211v600h242v-600h211 l-332 -484zM0 -410h1556v1639l-409 409h-1147v-2048zM328 -82v1393h655v-246h246v-1147h-901z" />
<glyph unicode="&#xe8;" horiz-adv-x="2414" d="M182 2785q0 -279 137 -514t374 -372.5t513 -137.5q279 0 514.5 137.5t372.5 374t137 512.5q0 279 -137 514.5t-374 372.5t-513 137q-279 0 -514.5 -137t-372.5 -374t-137 -513zM493 2665h291v241h-291q39 225 203 389t389 203v-291h242v291q225 -39 389 -202.5 t203 -389.5h-291v-241h291q-39 -225 -203 -389t-389 -203v291h-242v-291q-225 39 -389 203t-203 389zM0 -410l731 220l-4 6q231 -80 479 -80q324 0 606 127q279 129 441 349t162 476q0 260 -162 477q-162 219 -441.5 346t-605 127t-604.5 -127q-279 -129 -440.5 -348 t-161.5 -475q0 -301 217 -545l-8 -77q-12 -90 -68.5 -226.5t-140.5 -249.5zM586 688q0 59 43 102.5t102 43.5q61 0 104.5 -43t43.5 -103q0 -61 -43 -104t-105 -43q-59 0 -102 43t-43 104zM1098 688q0 59 43 102.5t102 43.5q61 0 104.5 -43t43.5 -103q0 -61 -43 -104 t-105 -43q-59 0 -102 43t-43 104zM1610 688q0 59 43 102.5t102 43.5q61 0 104.5 -43t43.5 -103q0 -61 -43 -104t-105 -43q-59 0 -102 43t-43 104z" />
<glyph unicode="&#xec;" horiz-adv-x="3174" d="M377 2787q0 -279 137 -514t374 -372.5t513 -137.5q279 0 514.5 137.5t372.5 374t137 512.5q0 279 -137 514.5t-374 372.5t-513 137q-279 0 -514.5 -137t-372.5 -374t-137 -513zM688 2667h291v241h-291q39 225 203 389t389 203v-291h242v291q225 -39 389 -202.5 t203 -389.5h-291v-241h291q-39 -225 -203 -389t-389 -203v291h-242v-291q-225 39 -389 203t-203 389zM0 614l1026 -1022v371l-653 651l653 654v372zM748 614l1026 -1022v648q116 10 227 9q167 0 325 -22q261 -37 416 -108q129 -59 245 -148.5t148 -136.5q23 -31 39 -61v34 q-4 72 -51 238q-45 158 -188 356q-137 190 -418 355q-293 170 -743 231v653z" />
<glyph unicode="&#xf1;" d="M90 2545q0 -279 137 -514t374 -372.5t513 -137.5q279 0 514.5 137.5t372.5 374t137 512.5q0 279 -137 514.5t-374 372.5t-513 137q-279 0 -514.5 -137t-372.5 -374t-137 -513zM481 2666l332 543l332 -543h-211v-602h-242v602h-211zM1083 2427h211v600h242v-600h211 l-332 -484zM182 279l307 217l-307 219v-436zM678 29v-437h1370v437h-1370zM678 279h1370v436h-1370v-436zM678 963h1370v436h-1370v-436z" />
<glyph unicode="&#xf2;" d="M340 2545q0 -279 137 -514t374 -372.5t513 -137.5q279 0 514.5 137.5t372.5 374t137 512.5q0 279 -137 514.5t-374 372.5t-513 137q-279 0 -514.5 -137t-372.5 -374t-137 -513zM651 2425h291v241h-291q39 225 203 389t389 203v-291h242v291q225 -39 389 -202.5 t203 -389.5h-291v-241h291q-39 -225 -203 -389t-389 -203v291h-242v-291q-225 39 -389 203t-203 389zM182 496l307 -217v436zM678 29v-437h1370v437h-1370zM678 279h1370v436h-1370v-436zM678 963h1370v436h-1370v-436z" />
<glyph unicode="&#xf5;" d="M340 2545q0 -279 137 -514t374 -372.5t513 -137.5q279 0 514.5 137.5t372.5 374t137 512.5q0 279 -137 514.5t-374 372.5t-513 137q-279 0 -514.5 -137t-372.5 -374t-137 -513zM731 2666l332 543l332 -543h-211v-602h-242v602h-211zM1333 2427h211v600h242v-600h211 l-332 -484zM182 496l307 -217v436zM678 29v-437h1370v437h-1370zM678 279h1370v436h-1370v-436zM678 963h1370v436h-1370v-436z" />
<glyph unicode="&#xf9;" horiz-adv-x="1972" d="M721 2787q0 -279 137 -514t374 -372.5t513 -137.5q279 0 514.5 137.5t372.5 374t137 512.5q0 279 -137 514.5t-374 372.5t-513 137q-279 0 -514.5 -137t-372.5 -374t-137 -513zM1032 2667h291v241h-291q39 225 203 389t389 203v-291h242v291q225 -39 389 -202.5 t203 -389.5h-291v-241h291q-39 -225 -203 -389t-389 -203v291h-242v-291q-225 39 -389 203t-203 389zM0 274v-682h455v682h-455zM758 -408h456v1366h-456v-1366zM1518 -408h454v2048h-454v-2048z" />
<glyph unicode="&#x152;" horiz-adv-x="2859" d="M1466 1337q0 47 70 107q141 121 311 176q115 37 219 37q50 0 97 -8q162 -33 440 -211q190 -125 379 -314q172 -170 313 -379q178 -279 211 -440q9 -47 9 -97q0 -104 -38 -218q-55 -170 -176 -312q-59 -70 -106 -69q-18 0 -39 7t-35 15.5t-35.5 26.5t-32 27.5t-32 32 t-25.5 26.5q-119 115 -198 229q-23 31 -27 59.5t9 56.5t29.5 49.5t45.5 49.5q12 12 54 49t64.5 64t30.5 49q6 18 0 41t-21 51.5t-30.5 50t-38 52t-30.5 43.5q-90 135 -199 239q-113 113 -242 201q-12 8 -41.5 30.5t-52 37t-50.5 30t-51.5 21.5t-39.5 0q-18 -6 -41 -24.5 t-39.5 -36t-43 -47t-38.5 -42.5q-29 -29 -50.5 -45t-49 -29.5t-56 -8t-59.5 25.5q-109 74 -229 199q-4 4 -27 25.5t-32 31.5t-27.5 31.5t-26.5 36t-15.5 35t-7.5 38.5zM-41 991q0 123 47 240q47 111 131 194.5t197 130.5q113 49 239 50q123 0 238 -50q113 -47 197 -131 q41 -41 77 -94q41 59 76 94q84 84 197 131q113 49 239 50q123 0 238 -50q113 -47 197 -131t131 -194q49 -113 49 -240q0 -170 -86 -354q-80 -168 -230 -334q-121 -139 -333 -323q-197 -164 -420 -320q-25 -18 -58 -18q-35 0 -59 18q-240 170 -420 320q-213 184 -334 323 q-154 176 -227 334q-86 178 -86 354zM61 991q0 -293 265.5 -596t758.5 -651q492 348 758 651t266 596q0 213 -149.5 362.5t-362.5 149.5t-362.5 -149.5t-149.5 -362.5q0 213 -149.5 362.5t-362.5 149.5t-362.5 -149.5t-149.5 -362.5z" />
<glyph unicode="&#x153;" horiz-adv-x="4462" d="M2048 -410l731 220l-4 6q231 -80 479 -80q324 0 606 127q279 129 441 349t162 476q0 260 -162 477q-162 219 -441.5 346t-605 127t-604.5 -127q-279 -129 -440.5 -348t-161.5 -475q0 -301 217 -545l-8 -77q-12 -90 -68.5 -226.5t-140.5 -249.5zM2634 688q0 59 43 102.5 t102 43.5q61 0 104.5 -43t43.5 -103q0 -61 -43 -104t-105 -43q-59 0 -102 43t-43 104zM3146 688q0 59 43 102.5t102 43.5q61 0 104.5 -43t43.5 -103q0 -61 -43 -104t-105 -43q-59 0 -102 43t-43 104zM3658 688q0 59 43 102.5t102 43.5q61 0 104.5 -43t43.5 -103 q0 -61 -43 -104t-105 -43q-59 0 -102 43t-43 104zM182 496l307 -217v436zM678 29v-437h1370v437h-1370zM678 279h1370v436h-1370v-436zM678 963h1370v436h-1370v-436z" />
<glyph unicode="&#x2dc;" horiz-adv-x="512" d="M-1024 1146q0 -279 137 -514t374 -372.5t513 -137.5q279 0 514.5 137.5t372.5 374t137 512.5q0 279 -137 514.5t-374 372.5t-513 137q-279 0 -514.5 -137t-372.5 -374t-137 -513zM-633 1267l332 543l332 -543h-211v-602h-242v602h-211zM-31 1028h211v600h242v-600h211 l-332 -484z" />
<glyph unicode="&#x2000;" horiz-adv-x="1912" />
<glyph unicode="&#x2001;" horiz-adv-x="3827" />
<glyph unicode="&#x2002;" horiz-adv-x="1912" />
<glyph unicode="&#x2003;" horiz-adv-x="3827" />
<glyph unicode="&#x2004;" horiz-adv-x="1275" />
<glyph unicode="&#x2005;" horiz-adv-x="956" />
<glyph unicode="&#x2006;" horiz-adv-x="636" />
<glyph unicode="&#x2007;" horiz-adv-x="636" />
<glyph unicode="&#x2008;" horiz-adv-x="477" />
<glyph unicode="&#x2009;" horiz-adv-x="763" />
<glyph unicode="&#x200a;" horiz-adv-x="210" />
<glyph unicode="&#x2010;" d="M0 614q0 -279 137 -514t374 -372.5t513 -137.5q279 0 514.5 137.5t372.5 374t137 512.5q0 279 -137 514.5t-374 372.5t-513 137q-279 0 -514.5 -137t-372.5 -374t-137 -513zM422 496v241h1206v-241h-1206z" />
<glyph unicode="&#x2011;" d="M0 614q0 -279 137 -514t374 -372.5t513 -137.5q279 0 514.5 137.5t372.5 374t137 512.5q0 279 -137 514.5t-374 372.5t-513 137q-279 0 -514.5 -137t-372.5 -374t-137 -513zM422 496v241h1206v-241h-1206z" />
<glyph unicode="&#x2012;" d="M0 614q0 -279 137 -514t374 -372.5t513 -137.5q279 0 514.5 137.5t372.5 374t137 512.5q0 279 -137 514.5t-374 372.5t-513 137q-279 0 -514.5 -137t-372.5 -374t-137 -513zM422 496v241h1206v-241h-1206z" />
<glyph unicode="&#x2013;" horiz-adv-x="1024" d="M0 -410v2048h1024v-2048h-1024z" />
<glyph unicode="&#x2014;" d="M0 -410v2048h2048v-2048h-2048z" />
<glyph unicode="&#x2018;" d="M0 614q0 -279 137 -514t374 -372.5t513 -137.5q279 0 514.5 137.5t372.5 374t137 512.5q0 279 -137 514.5t-374 372.5t-513 137q-279 0 -514.5 -137t-372.5 -374t-137 -513zM311 494h291v241h-291q39 225 203 389t389 203v-291h242v291q225 -39 389 -202.5t203 -389.5 h-291v-241h291q-39 -225 -203 -389t-389 -203v291h-242v-291q-225 39 -389 203t-203 389z" />
<glyph unicode="&#x2019;" d="M0 -94l315 -316l709 709l709 -709l315 316l-709 708l709 709l-315 315l-709 -708l-709 708l-315 -315l709 -709z" />
<glyph unicode="&#x2026;" horiz-adv-x="7243" d="M4829 614q655 -655 950 -1024q78 123 236 367q715 1081 1229 1536q-37 70 -72 102q-43 37 -53 39q-20 4 -23 4l-43 -28q-33 -20 -158 -121q-80 -66 -268 -227q-387 -334 -993 -940l-586 512zM2415 614q655 -655 950 -1024q78 123 236 367q715 1081 1229 1536 q-37 70 -72 102q-43 37 -53 39q-20 4 -23 4l-43 -28q-33 -20 -158 -121q-80 -66 -268 -227q-387 -334 -993 -940l-586 512zM0 614q655 -655 950 -1024q78 123 236 367q715 1081 1229 1536q-37 70 -72 102q-43 37 -53 39q-20 4 -23 4l-43 -28q-33 -20 -158 -121 q-80 -66 -268 -227q-387 -334 -993 -940l-586 512z" />
<glyph unicode="&#x202f;" horiz-adv-x="763" />
<glyph unicode="&#x2039;" horiz-adv-x="1339" d="M0 614l1024 -1024l315 316l-708 708l708 709l-315 315z" />
<glyph unicode="&#x203a;" horiz-adv-x="1339" d="M0 -94l315 -316l1024 1024l-1024 1024l-315 -315l709 -709z" />
<glyph unicode="&#x205f;" horiz-adv-x="956" />
<glyph unicode="&#x2122;" horiz-adv-x="4679" d="M1894 -410h2785v2048h-2785v-2048zM2058 82v1065h655v-1065h-655zM2058 -82h246v-164h-246v164zM2058 1311v164h246v-164h-246zM2467 -82h246v-164h-246v164zM2467 1311v164h246v-164h-246zM2959 82v1065h655v-1065h-655zM2959 -82h246v-164h-246v164zM2959 1311v164h246 v-164h-246zM3369 -82h245v-164h-245v164zM3369 1311v164h245v-164h-245zM3860 82v1065h655v-1065h-655zM3860 -82h246v-164h-246v164zM3860 1311v164h246v-164h-246zM4270 -82h245v-164h-245v164zM4270 1311v164h245v-164h-245zM0 176q0 -195 96 -332q182 -254 594 -254 q379 0 627 244q6 -104 37 -188h540q-33 76 -49 182q-6 35 -9 63.5t-5 46t-3 50t-1 46.5v63v75v836q0 147 -47 264q-47 111 -123 179.5t-191 113.5q-193 74 -483 73q-360 0 -600 -135q-272 -152 -297 -518h500q27 164 113.5 230.5t269.5 66.5q348 0 348 -258q0 -41 -17 -78 q-33 -59 -106 -88q-59 -23 -145 -37q-98 -18 -205 -30q-51 -6 -133 -17q-184 -29 -262 -53q-158 -49 -228 -98q-121 -90 -160 -172q-61 -123 -61 -275zM547 199q0 98 53 161q80 90 330 127q276 41 383 101v-217q0 -203 -129 -317.5t-344 -114.5q-133 0 -213 67.5t-80 192.5z " />
<glyph unicode="&#xe000;" horiz-adv-x="1520" d="M0 1520h1520v-1520h-1520v1520z" />
<glyph unicode="&#xfb01;" horiz-adv-x="5222" d="M2048 614l1026 -1022v371l-653 651l653 654v372zM2796 614l1026 -1022v648q116 10 227 9q167 0 325 -22q261 -37 416 -108q129 -59 245 -148.5t148 -136.5q23 -31 39 -61v34q-4 72 -51 238q-45 158 -188 356q-137 190 -418 355q-293 170 -743 231v653zM0 -229 q0 -74 53 -127.5t127 -53.5h1688q74 0 127 53.5t53 127.5v1687q0 74 -53 127t-127 53h-1688q-74 0 -127 -53t-53 -127v-1687zM946 645v236h162v159q0 362 305 363q205 0 293 -31l-41 -242q-63 20 -131 21q-121 0 -121 -86v-184h260l-18 -236h-242v-819h-305v819h-162z" />
<glyph unicode="&#xfb02;" horiz-adv-x="4096" d="M2048 -229q0 -74 53 -127.5t127 -53.5h1688q74 0 127 53.5t53 127.5v1687q0 74 -53 127t-127 53h-1688q-74 0 -127 -53t-53 -127v-1687zM2451 1095.5q0 57.5 39 95.5t100.5 38t99.5 -38t38 -101q0 -54 -37 -90q-39 -38 -104 -37q-59 0 -97.5 37.5t-38.5 95zM2458 0v858 h262v-858h-262zM2871 858h228l12 -121h4q35 59 103.5 99.5t158.5 40.5q139 0 221 -96.5t82 -274.5v-506h-264v475q0 186 -133 187q-96 0 -135 -101q-8 -23 -8 -67v-494h-263v584q0 41 -6 274zM0 -229q0 -74 53 -127.5t127 -53.5h1688q74 0 127 53.5t53 127.5v1687 q0 74 -53 127t-127 53h-1688q-74 0 -127 -53t-53 -127v-1687zM946 645v236h162v159q0 362 305 363q205 0 293 -31l-41 -242q-63 20 -131 21q-121 0 -121 -86v-184h260l-18 -236h-242v-819h-305v819h-162z" />
<glyph unicode="&#xfb03;" horiz-adv-x="7270" d="M4096 614l1026 -1022v371l-653 651l653 654v372zM4844 614l1026 -1022v648q116 10 227 9q167 0 325 -22q261 -37 416 -108q129 -59 245 -148.5t148 -136.5q23 -31 39 -61v34q-4 72 -51 238q-45 158 -188 356q-137 190 -418 355q-293 170 -743 231v653zM2048 -229 q0 -74 53 -127.5t127 -53.5h1688q74 0 127 53.5t53 127.5v1687q0 74 -53 127t-127 53h-1688q-74 0 -127 -53t-53 -127v-1687zM2994 645v236h162v159q0 362 305 363q205 0 293 -31l-41 -242q-63 20 -131 21q-121 0 -121 -86v-184h260l-18 -236h-242v-819h-305v819h-162z M0 -229q0 -74 53 -127.5t127 -53.5h1688q74 0 127 53.5t53 127.5v1687q0 74 -53 127t-127 53h-1688q-74 0 -127 -53t-53 -127v-1687zM946 645v236h162v159q0 362 305 363q205 0 293 -31l-41 -242q-63 20 -131 21q-121 0 -121 -86v-184h260l-18 -236h-242v-819h-305v819h-162 z" />
<glyph unicode="&#xfb04;" horiz-adv-x="6144" d="M4096 -229q0 -74 53 -127.5t127 -53.5h1688q74 0 127 53.5t53 127.5v1687q0 74 -53 127t-127 53h-1688q-74 0 -127 -53t-53 -127v-1687zM4499 1095.5q0 57.5 39 95.5t100.5 38t99.5 -38t38 -101q0 -54 -37 -90q-39 -38 -104 -37q-59 0 -97.5 37.5t-38.5 95zM4506 0v858 h262v-858h-262zM4919 858h228l12 -121h4q35 59 103.5 99.5t158.5 40.5q139 0 221 -96.5t82 -274.5v-506h-264v475q0 186 -133 187q-96 0 -135 -101q-8 -23 -8 -67v-494h-263v584q0 41 -6 274zM2048 -229q0 -74 53 -127.5t127 -53.5h1688q74 0 127 53.5t53 127.5v1687 q0 74 -53 127t-127 53h-1688q-74 0 -127 -53t-53 -127v-1687zM2994 645v236h162v159q0 362 305 363q205 0 293 -31l-41 -242q-63 20 -131 21q-121 0 -121 -86v-184h260l-18 -236h-242v-819h-305v819h-162zM0 -229q0 -74 53 -127.5t127 -53.5h1688q74 0 127 53.5t53 127.5 v1687q0 74 -53 127t-127 53h-1688q-74 0 -127 -53t-53 -127v-1687zM946 645v236h162v159q0 362 305 363q205 0 293 -31l-41 -242q-63 20 -131 21q-121 0 -121 -86v-184h260l-18 -236h-242v-819h-305v819h-162z" />
</font>
</defs>
</svg>
